<svg xmlns="http://www.w3.org/2000/svg" width="22.629" height="22.629" viewBox="0 0 22.629 22.629">
  <g id="appointment_Outline" data-name="appointment Outline" transform="translate(-91.289 -21.289)">
    <path id="Path_31711" data-name="Path 31711" d="M177.69,21.539h.922v1.4h-.922Z" transform="translate(-82.463 0)" fill="none" stroke="#4d4d4d" stroke-width="0.5"/>
    <path id="Path_31712" data-name="Path 31712" d="M242.31,21.539h.922v1.4h-.922Z" transform="translate(-144.317 0)" fill="none" stroke="#4d4d4d" stroke-width="0.5"/>
    <path id="Path_31713" data-name="Path 31713" d="M468.46,21.539h.922v1.4h-.922Z" transform="translate(-360.786 0)" fill="none" stroke="#4d4d4d" stroke-width="0.5"/>
    <path id="Path_31714" data-name="Path 31714" d="M533.08,21.539H534v1.4h-.922Z" transform="translate(-422.639 0)" fill="none" stroke="#4d4d4d" stroke-width="0.5"/>
    <path id="Path_31715" data-name="Path 31715" d="M111.37,54.277v2.287h-.922V54.277H108.6v2.287h-.922V54.277H98.922v2.287H98V54.277H96.156v2.287h-.922V54.277H91.546v5.975h22.129V54.277Z" transform="translate(-0.007 -31.337)" fill="none" stroke="#4d4d4d" stroke-width="0.5"/>
    <path id="Path_31716" data-name="Path 31716" d="M91.539,225.523h17.233l4.9-5.224V215.38H91.539Zm7.51-4.707,1.632,1.544,5.532-4.786.6.7-6.164,5.334-2.241-2.121Z" transform="translate(0 -185.543)" fill="none" stroke="#4d4d4d" stroke-width="0.5"/>
    <path id="Path_31717" data-name="Path 31717" d="M91.539,366.645v2.766h18.168l3.96-3.955V361.85l-4.49,4.795Z" transform="translate(0 -325.743)" fill="none" stroke="#4d4d4d" stroke-width="0.5"/>
  </g>
</svg>
