<svg id="noun_Download_1569899" xmlns="http://www.w3.org/2000/svg" width="13.304" height="13.683" viewBox="0 0 13.304 13.683">
  <g id="Group_61" data-name="Group 61">
    <path id="Path_264" data-name="Path 264" d="M36.745,988.627a.7.7,0,0,1-.416-.171l-5.14-4.838a.606.606,0,0,1-.024-.855.623.623,0,0,1,.855-.024l4.12,3.883v-8.656a.6.6,0,1,1,1.209,0v8.656l4.12-3.883a.633.633,0,0,1,.855.024.605.605,0,0,1-.024.855l-5.14,4.838a.538.538,0,0,1-.416.171Z" transform="translate(-30.093 -977.362)" fill="#2a2ac0"/>
    <path id="Path_265" data-name="Path 265" d="M28.6,1028.362a.6.6,0,0,0,0,1.209H40.7a.6.6,0,0,0,0-1.209Z" transform="translate(-28 -1015.888)" fill="#2a2ac0"/>
  </g>
</svg>
