<svg xmlns="http://www.w3.org/2000/svg" width="40.565" height="24.223" viewBox="0 0 40.565 24.223">
  <g id="noun-eye-113309" transform="translate(-97.996 -129.52)">
    <path id="Path_31709" data-name="Path 31709" d="M118.279,129.52a23.11,23.11,0,0,0-19.936,11.511l-.348.6.348.6a23.017,23.017,0,0,0,39.869,0l.348-.6-.347-.6a23.11,23.11,0,0,0-19.935-11.511Zm0,20.8a8.688,8.688,0,1,1,8.688-8.688A8.7,8.7,0,0,1,118.279,150.32Zm-17.5-8.688A20.727,20.727,0,0,1,111,133.267,11.082,11.082,0,0,0,111,150,20.727,20.727,0,0,1,100.783,141.632ZM125.554,150a11.081,11.081,0,0,0,0-16.73,20.723,20.723,0,0,1,10.218,8.366A20.73,20.73,0,0,1,125.553,150Z" transform="translate(0)" fill="#fff"/>
    <path id="Path_31710" data-name="Path 31710" d="M283.527,207.147a6.377,6.377,0,1,1-6.377-6.377,6.377,6.377,0,0,1,6.377,6.377" transform="translate(-158.871 -65.515)" fill="#fff"/>
  </g>
</svg>
