<svg xmlns="http://www.w3.org/2000/svg" width="158.662" height="124.109" viewBox="0 0 158.662 124.109">
  <g id="Group_587" data-name="Group 587" transform="translate(0 0)">
    <g id="Group_1" data-name="Group 1">
      <g id="favcon-my-medbook" transform="translate(0)">
        <path id="Path_7" data-name="Path 7" d="M16.731.15C10.877.935,6.237,4.4,2.453,10.858-2.615,19.568.1,29.633,11.27,43.59c6,7.5,19.1,20.2,25.843,25.093,1.356.964,1.535,1,2.427.571,2.035-1.071,11.279-9.245,17.526-15.527C73.378,37.308,79.7,25.279,77.126,15.5,75.377,8.859,70.2,3.077,64.169.971A20.421,20.421,0,0,0,54,.542C48,2.006,42.467,7,39.9,13.214a5.9,5.9,0,0,1-1.071,1.927c-.143,0-.428-.535-.642-1.178a30.182,30.182,0,0,0-5.818-8.638A19.606,19.606,0,0,0,16.731.15Z" transform="translate(127.066 5.743) rotate(66)" fill="#27b1ff"/>
        <path id="Path_7-2" data-name="Path 7" d="M16.731.15C10.877.935,6.237,4.4,2.453,10.858-2.615,19.568.1,29.633,11.27,43.59c6,7.5,19.1,20.2,25.843,25.093,1.356.964,1.535,1,2.427.571,2.035-1.071,11.279-9.245,17.526-15.527C73.378,37.308,79.7,25.279,77.126,15.5,75.377,8.859,70.2,3.077,64.169.971A20.421,20.421,0,0,0,54,.542C48,2.006,42.467,7,39.9,13.214a5.9,5.9,0,0,1-1.071,1.927c-.143,0-.428-.535-.642-1.178a30.182,30.182,0,0,0-5.818-8.638A19.606,19.606,0,0,0,16.731.15Z" transform="translate(0 71.554) rotate(-62)" fill="#27b1ff"/>
        <path id="Path_7-3" data-name="Path 7" d="M156.858-381.27c-5.854.785-10.494,4.248-14.278,10.708-5.069,8.709-2.356,18.775,8.817,32.732,6,7.5,19.1,20.2,25.843,25.093,1.356.964,1.535,1,2.427.571,2.035-1.071,11.279-9.245,17.526-15.527,16.312-16.419,22.63-28.448,20.06-38.229-1.749-6.639-6.925-12.422-12.957-14.528a20.42,20.42,0,0,0-10.173-.428c-6,1.463-11.529,6.461-14.1,12.672a5.9,5.9,0,0,1-1.071,1.928c-.143,0-.428-.535-.642-1.178a30.18,30.18,0,0,0-5.818-8.638A19.606,19.606,0,0,0,156.858-381.27Z" transform="translate(-98.761 381.42)" fill="#032594" opacity="0.8"/>
      </g>
    </g>
    <text id="My_MedBook" data-name="My MedBook" transform="translate(20.33 119.109)" fill="#032594" font-size="20" font-family="SegoeUI, Segoe UI"><tspan x="0" y="0">My</tspan><tspan y="0" fill="#27b1ff"> </tspan><tspan y="0" fill="#27b1ff" font-family="SegoeUI-Bold, Segoe UI" font-weight="700">MedBook</tspan></text>
  </g>
</svg>
