<svg xmlns="http://www.w3.org/2000/svg" width="21.5" height="21.5" viewBox="0 0 21.5 21.5">
  <path id="Home_Outline" data-name="Home Outline" d="M83.293,59.708h3.861V49.544a.509.509,0,0,1,.237-.445.371.371,0,0,1,.444.056l1.705,1.574.946-1.416-3.162-2.92A.531.531,0,0,1,87.163,46V42.343h-.889v2.062a.509.509,0,0,1-.237.445.371.371,0,0,1-.444-.056l-4.843-4.472-9.737,8.99.946,1.416,1.705-1.574a.371.371,0,0,1,.444-.056.509.509,0,0,1,.237.445V59.708H78.2v-4.12a2.58,2.58,0,1,1,5.094,0Zm4.282.99h-4.7a.463.463,0,0,1-.421-.5V55.588a1.727,1.727,0,1,0-3.409,0V60.2a.463.463,0,0,1-.421.5h-4.7a.463.463,0,0,1-.421-.5v-9.64l-1.355,1.251a.38.38,0,0,1-.591-.083l-1.467-2.194a.556.556,0,0,1,.071-.7L80.489,39.3a.373.373,0,0,1,.52,0l4.422,4.083V41.848a.463.463,0,0,1,.421-.495h1.732a.463.463,0,0,1,.421.495v3.916l3.333,3.077a.556.556,0,0,1,.071.7L89.943,51.73a.381.381,0,0,1-.592.083L88,50.563V60.2a.463.463,0,0,1-.421.5Z" transform="translate(-69.999 -39.199)" fill="#505050" fill-rule="evenodd"/>
</svg>
