<svg xmlns="http://www.w3.org/2000/svg" width="21.5" height="21.5" viewBox="0 0 21.5 21.5">
  <path id="Home_Filled" data-name="Home Filled" d="M91.341,48.841l-3.333-3.077V41.848a.463.463,0,0,0-.421-.495H85.856a.463.463,0,0,0-.421.495v1.539L81.013,39.3a.373.373,0,0,0-.52,0L70.163,48.841a.556.556,0,0,0-.071.7l1.467,2.194a.411.411,0,0,0,.281.186.378.378,0,0,0,.31-.1l1.355-1.251V60.2a.463.463,0,0,0,.421.5h4.7a.463.463,0,0,0,.421-.5V55.588a1.727,1.727,0,1,1,3.409,0V60.2a.463.463,0,0,0,.421.5h4.7A.463.463,0,0,0,88,60.2v-9.64l1.355,1.251a.378.378,0,0,0,.31.1.411.411,0,0,0,.281-.186l1.467-2.194a.555.555,0,0,0-.071-.7" transform="translate(-70.003 -39.198)" fill="#0a40a9" fill-rule="evenodd"/>
</svg>
