<svg xmlns="http://www.w3.org/2000/svg" width="16.622" height="16.623" viewBox="0 0 16.622 16.623">
  <path id="noun-sign-out-4213596" d="M78.314,0a.831.831,0,0,1,.1,1.657l-.1.006H73.328A1.662,1.662,0,0,0,71.67,3.2l0,.124V13.3A1.662,1.662,0,0,0,73.2,14.956l.124,0h4.987a.831.831,0,0,1,.1,1.657l-.1.006H73.328a3.325,3.325,0,0,1-3.32-3.159l0-.166V3.325A3.325,3.325,0,0,1,73.162,0l.166,0Zm5.5,5.161.078.069,2.493,2.493a.855.855,0,0,1,.065.074l-.065-.074a.851.851,0,0,1,.08.093q.022.03.042.062l.018.03c.009.016.018.033.026.051s.013.029.019.043.013.033.018.05.008.025.011.038.009.036.013.054.005.029.008.043,0,.034.006.051,0,.031,0,.046,0,.018,0,.027v.028c0,.014,0,.029,0,.043l0-.071a.84.84,0,0,1-.009.124c0,.014,0,.029-.008.043s-.008.036-.013.054-.008.026-.012.038-.011.033-.018.049-.012.029-.019.043-.017.034-.026.051l-.018.03-.008.013-.03.043-.015.02-.008.01-.061.068-2.493,2.493a.831.831,0,0,1-1.245-1.1l.069-.078,1.073-1.075H74.159a.831.831,0,0,1-.1-1.657l.1-.006h9.628L82.713,6.406a.831.831,0,0,1,1.1-1.245Z" transform="translate(-70.003)" fill="#0a58ca"/>
</svg>
