<svg xmlns="http://www.w3.org/2000/svg" width="30.933" height="34.221" viewBox="0 0 30.933 34.221">
  <g id="noun-stethoscope-50094" transform="translate(-124.405 -25.992)">
    <path id="Path_31707" data-name="Path 31707" d="M152.164,45.553a3.173,3.173,0,0,0-1.344,6.047c-1.171,3.419-4.15,6.989-7.638,6.989-4.28,0-7.794-5.373-8.142-9.25a2.651,2.651,0,0,0,1.529-1.7c2.252-.918,4.331-3.168,5.913-6.477a1.351,1.351,0,0,0-.082-1.312,20.393,20.393,0,0,0,1.594-7.449c0-3.882-.264-5.539-2.93-6a1.078,1.078,0,0,0-.842-.4h-2.311a1.082,1.082,0,0,0-1.082,1.082s0,0,0,.006a1.082,1.082,0,0,0,1.082,1.077h2.311a1.076,1.076,0,0,0,.576-.167c.722.123,1,.333,1.163.613.345.6.41,1.792.41,3.793a18.7,18.7,0,0,1-1.491,6.881,1.347,1.347,0,0,0-.839.713c-1.617,3.383-3.774,5.4-5.769,5.4-2.035,0-4.3-2.179-5.9-5.686a1.349,1.349,0,0,0-.985-.766,18.531,18.531,0,0,1-1.354-6.544c0-1.961.073-3.213.446-3.813.177-.284.477-.5,1.263-.612a1.075,1.075,0,0,0,.606.185h2.311a1.082,1.082,0,0,0,1.082-1.08v0a1.082,1.082,0,0,0-1.082-1.082h-2.311a1.076,1.076,0,0,0-.813.37,3.148,3.148,0,0,0-2.434,1.364c-.585.939-.692,2.31-.692,4.671a20.316,20.316,0,0,0,1.522,7.271,1.35,1.35,0,0,0-.02,1.166,16.514,16.514,0,0,0,3.383,4.993,8.705,8.705,0,0,0,2.516,1.732,2.652,2.652,0,0,0,1.605,1.8,13.519,13.519,0,0,0,2.774,6.854c1.981,2.579,4.465,4,7,4s5.015-1.421,7-4a14.4,14.4,0,0,0,2.264-4.327,3.173,3.173,0,0,0-.277-6.333Zm.621,5.007A1.98,1.98,0,1,1,154.1,48.7a1.986,1.986,0,0,1-1.313,1.865Z" fill="#fff"/>
    <path id="Path_31708" data-name="Path 31708" d="M516.039,341.9a1.253,1.253,0,1,0,1.254,1.254A1.254,1.254,0,0,0,516.039,341.9Z" transform="translate(-363.874 -294.458)" fill="#fff"/>
  </g>
</svg>
