<svg xmlns="http://www.w3.org/2000/svg" width="15.76" height="21.492" viewBox="0 0 15.76 21.492">
  <g id="prescription_ouutline" data-name="prescription ouutline" transform="translate(-157.499 -17.496)">
    <path id="Path_31718" data-name="Path 31718" d="M333.933,53.216a.716.716,0,1,1-.716-.716.716.716,0,0,1,.716.716" transform="translate(-167.837 -33.571)"/>
    <path id="Path_31719" data-name="Path 31719" d="M171.468,20.361h-2.149a1.433,1.433,0,0,0-1.433-1.433h-.481a2.149,2.149,0,0,0-4.053,0h-.481a1.433,1.433,0,0,0-1.433,1.433H159.29a1.793,1.793,0,0,0-1.791,1.791V37.2a1.793,1.793,0,0,0,1.791,1.791h12.178a1.793,1.793,0,0,0,1.791-1.791V22.152a1.793,1.793,0,0,0-1.791-1.791Zm-9.313,0a.716.716,0,0,1,.716-.716h1.045l.058-.287a1.433,1.433,0,0,1,2.808,0l.058.287h1.045a.716.716,0,0,1,.716.716v1.075h-6.447ZM172.543,37.2a1.074,1.074,0,0,1-1.075,1.075H159.29a1.074,1.074,0,0,1-1.075-1.075V22.152a1.074,1.074,0,0,1,1.075-1.075h2.149v.358a.716.716,0,0,0,.716.716H168.6a.716.716,0,0,0,.716-.716v-.358h2.149a1.074,1.074,0,0,1,1.075,1.075Z" transform="translate(0)"/>
    <path id="Path_31720" data-name="Path 31720" d="M280.358,140.587h5.015a.3.3,0,1,0,0-.587h-5.015a.3.3,0,1,0,0,.587Z" transform="translate(-117.486 -117.423)"/>
    <g id="layer1" transform="translate(161.578 25.801)">
      <g id="text2985" transform="translate(0 0)">
        <path id="path2997" d="M252.732,282.844c-.089,0-.232,0-.429.008q-.8.029-1.27.029-.425,0-1.187-.033l-.033.029v.208l.033.029a3.53,3.53,0,0,1,.554.047.3.3,0,0,1,.152.075.374.374,0,0,1,.059.183c.012.092.02.3.023.613l.008.812v1.928l0,.878a3.813,3.813,0,0,1-.032.576.324.324,0,0,1-.071.168.375.375,0,0,1-.172.065,4.37,4.37,0,0,1-.517.041l-.033.025v.208l.033.033q1.062-.033,1.191-.033.167,0,.462.008l.733.025.033-.033v-.208l-.033-.025a3.306,3.306,0,0,1-.554-.048.312.312,0,0,1-.152-.077.387.387,0,0,1-.06-.183,5.643,5.643,0,0,1-.025-.609l0-.812v-1.928a8.4,8.4,0,0,1,.063-1.562,2.748,2.748,0,0,1,.824-.12,1.59,1.59,0,0,1,.991.281.981.981,0,0,1,.366.83,1.188,1.188,0,0,1-.408.958,1.693,1.693,0,0,1-1.129.345c-.081,0-.193,0-.337-.012l-.041.129q.75.854,1.466,1.852c.392.548.68.936.873,1.174l.131.219-1.137,1.6q-.437.608-.588.8a.878.878,0,0,1-.245.237,1,1,0,0,1-.376.052l-.033.033v.2l.037.037c.175-.011.316-.016.421-.016s.245,0,.425.016q.812-1.362,1.411-2.187l.3-.42,1.266,1.869q.212.366.462.737c.286-.011.5-.016.641-.016.108,0,.295,0,.558.016l.033-.033v-.2l-.033-.033a1.163,1.163,0,0,1-.341-.036.607.607,0,0,1-.2-.191q-.123-.16-.322-.485l-1.558-2.248a.248.248,0,0,0-.016-.047l.3-.4.774-1.05q.416-.562.552-.7a.758.758,0,0,1,.221-.177,1.243,1.243,0,0,1,.348-.048l.033-.033v-.187l-.033-.039-.388.013c-.05,0-.192,0-.428-.013l-1.591,2.335c-.062-.08-.151-.208-.288-.388q-.329-.431-.616-.818l-.592-.782q-.3-.4-.421-.562a2.7,2.7,0,0,0,.987-.361,1.627,1.627,0,0,0,.541-.576,1.427,1.427,0,0,0,.184-.688,1.253,1.253,0,0,0-.374-.907,2.005,2.005,0,0,0-1.428-.384Z" transform="translate(-249.812 -282.844)"/>
      </g>
    </g>
  </g>
</svg>
