<svg xmlns="http://www.w3.org/2000/svg" width="21.5" height="21.5" viewBox="0 0 21.5 21.5">
  <path id="Profile_Outline" data-name="Profile Outline" d="M175.881,104.543a4.031,4.031,0,1,1,4.031,4.031A4.031,4.031,0,0,1,175.881,104.543Zm7.01,4.474a5.375,5.375,0,1,0-5.959,0A11.356,11.356,0,0,0,169.162,120a.672.672,0,1,0,1.344,0c0-5.607,4.251-10.078,9.406-10.078s9.407,4.471,9.407,10.078a.672.672,0,1,0,1.344,0,11.356,11.356,0,0,0-7.771-10.979Z" transform="translate(-169.162 -99.168)" fill="#505050" fill-rule="evenodd"/>
</svg>
